Coordinates
version=1
nRows=14
nColumns=40
inDegrees=yes

Units are S.I. units (second, meters, Newtons, ...)
Angles are in degrees.

endheader
time	pelvis_tilt	pelvis_list	pelvis_rotation	pelvis_tx	pelvis_ty	pelvis_tz	hip_flexion_r	hip_adduction_r	hip_rotation_r	knee_angle_r	knee_angle_r_beta	ankle_angle_r	subtalar_angle_r	mtp_angle_r	hip_flexion_l	hip_adduction_l	hip_rotation_l	knee_angle_l	knee_angle_l_beta	ankle_angle_l	subtalar_angle_l	mtp_angle_l	lumbar_extension	lumbar_bending	lumbar_rotation	arm_flex_r	arm_add_r	arm_rot_r	elbow_flex_r	pro_sup_r	wrist_flex_r	wrist_dev_r	arm_flex_l	arm_add_l	arm_rot_l	elbow_flex_l	pro_sup_l	wrist_flex_l	wrist_dev_l
      7.58000000	     -3.61770312	     -3.41669658	     -1.53109451	      1.05349328	      0.92976958	      0.45011304	     30.76177773	     -6.75642023	     -6.70773836	     68.17308143	     68.17308143	      0.96782120	    -17.26629337	      3.02042817	     15.58805158	     -4.33725298	     -7.98483212	     23.67190503	     23.67190503	     13.87727505	    -12.74295216	     -0.97579409	    -10.53390659	      5.26326808	     -0.01029999	      8.43243869	    -12.83143188	     -6.02210153	     81.12250571	     45.13559508	      0.00000000	      0.00000000	      4.98849172	    -12.21118018	      6.19165125	     40.15975511	     45.27158213	      0.00000000	      0.00000000
      7.59150000	     -3.52144769	     -3.43920799	     -1.77990912	      1.05326461	      0.93075990	      0.44952748	     31.83728560	     -6.61583335	     -6.85630141	     66.19737671	     66.19737671	      0.92227490	    -16.98529329	      2.29284213	     14.27035420	     -4.21009355	     -8.08224383	     22.70872808	     22.70872808	     13.95318582	    -12.89827655	     -1.18132186	    -10.65710727	      5.39593371	      0.22445708	      6.82171239	    -12.78864502	     -6.39138027	     76.46079741	     45.29788389	      0.00000000	      0.00000000	      6.77126035	    -12.49155896	      6.08315251	     41.16179852	     45.34604905	      0.00000000	      0.00000000
      7.60300000	     -3.30446016	     -3.49450618	     -2.07513589	      1.05311034	      0.93181436	      0.44910149	     32.61267660	     -6.33578145	     -6.93420822	     63.96403974	     63.96403974	      0.93897684	    -16.65359747	      2.21237290	     12.81266587	     -4.18585753	     -8.48215717	     21.76583085	     21.76583085	     14.23393937	    -12.51839245	     -1.29656707	    -11.02204996	      5.55459105	      0.84098316	      4.80793936	    -13.21341839	     -6.34219819	     73.11897702	     45.39852159	      0.00000000	      0.00000000	      8.66263631	    -12.69820925	      5.87101198	     42.54165150	     45.41130346	      0.00000000	      0.00000000
      7.61450000	     -3.20749201	     -3.53271507	     -2.31898801	      1.05291859	      0.93255281	      0.44872112	     33.33059672	     -6.08095843	     -7.08616201	     61.44125296	     61.44125296	      0.68617353	    -16.34846194	      1.51337324	     11.52627098	     -4.14588899	     -8.87536109	     20.83987823	     20.83987823	     14.27544758	    -12.17902795	     -1.98016961	    -11.11026821	      5.65087263	      0.45968310	      4.64072608	    -12.50113569	     -6.98486831	     66.09710275	     45.64702406	      0.00000000	      0.00000000	      9.82203103	    -13.41741334	      5.94015636	     44.21145563	     45.47560632	      0.00000000	      0.00000000
      7.62600000	     -3.03860061	     -3.59361821	     -2.60172618	      1.05279305	      0.93328067	      0.44843530	     33.82639462	     -5.75066972	     -7.19652476	     58.68184724	     58.68184724	      0.65673372	    -15.77651305	      1.68835329	     10.11754622	     -4.09667437	     -9.22300413	     19.84552730	     19.84552730	     14.53349911	    -11.80760743	     -2.04191297	    -11.44806504	      5.79365935	      1.09026266	      2.79285101	    -12.90415341	     -6.91999471	     62.96109868	     45.73953622	      0.00000000	      0.00000000	     11.59759762	    -13.55580766	      5.66688211	     45.68745881	     45.54477720	      0.00000000	      0.00000000
      7.63750000	     -2.98684898	     -3.57666581	     -2.82903950	      1.05267369	      0.93360399	      0.44819152	     34.31370080	     -5.51433755	     -7.32929839	     55.68318410	     55.68318410	      0.45762460	    -15.19623285	      1.32904859	      8.89578482	     -3.97701061	     -9.62307389	     18.90882518	     18.90882518	     14.51774277	    -11.49610272	     -2.76520854	    -11.48904020	      5.84199839	      0.52693907	      3.31915176	    -12.12855340	     -7.78559413	     55.17327194	     46.01856558	      0.00000000	      0.00000000	     12.47514485	    -14.39881297	      5.49970088	     47.69497482	     45.63764127	      0.00000000	      0.00000000
      7.64900000	     -2.93008560	     -3.51249585	     -3.08066124	      1.05258910	      0.93374970	      0.44804823	     34.67222912	     -5.30451577	     -7.44423320	     52.45111644	     52.45111644	      0.38330052	    -14.35135597	      1.23435202	      7.63051862	     -3.79345532	    -10.03674742	     17.90558050	     17.90558050	     14.66709939	    -11.03428258	     -3.08364340	    -11.62680179	      5.85267586	      0.92055280	      2.17658595	    -12.20047454	     -8.06518476	     50.90023383	     46.15615698	      0.00000000	      0.00000000	     13.87977791	    -14.66830200	      5.06676300	     49.60229097	     45.73976403	      0.00000000	      0.00000000
      7.66050000	     -2.86252463	     -3.52162826	     -3.27132240	      1.05254188	      0.93374780	      0.44806486	     34.80523923	     -5.01326984	     -7.65493865	     48.85382057	     48.85382057	      0.12123832	    -13.37758144	      0.63358796	      6.40361964	     -3.69739729	    -10.39297526	     16.97670253	     16.97670253	     14.71758875	    -10.63479186	     -3.70237403	    -11.75693399	      5.93101411	      0.60888154	      2.17807298	    -11.80456046	     -9.01900753	     44.93181715	     46.37489099	      0.00000000	      0.00000000	     14.74355148	    -15.33186346	      4.56221113	     51.86255860	     45.86612670	      0.00000000	      0.00000000
      7.67200000	     -2.83268034	     -3.49880700	     -3.46701653	      1.05259487	      0.93346711	      0.44817754	     34.84999787	     -4.76405342	     -7.94119633	     45.07473151	     45.07473151	      0.16093334	    -12.01104597	      0.74662962	      5.21976891	     -3.56017126	    -10.74033304	     16.08157187	     16.08157187	     14.98864881	    -10.18492698	     -3.85284259	    -11.90021604	      5.97634000	      1.03624241	      0.46496913	    -12.09220289	     -9.17699449	     42.69729916	     46.44611171	      0.00000000	      0.00000000	     16.22920116	    -15.49101872	      4.16223096	     53.44370367	     45.94195612	      0.00000000	      0.00000000
      7.68350000	     -2.83998211	     -3.43256834	     -3.60059003	      1.05279664	      0.93293814	      0.44829795	     34.71187551	     -4.56109963	     -8.29463685	     40.93373993	     40.93373993	     -0.33885976	    -10.58258690	     -0.51517693	      4.03318863	     -3.38850306	    -11.18754309	     15.07793086	     15.07793086	     14.95418715	     -9.53877792	     -4.83090018	    -11.90292792	      5.99933039	      0.57253370	      0.93701497	    -11.61212313	    -10.87750821	     35.94295478	     46.74810428	      0.00000000	      0.00000000	     16.62995225	    -16.32021527	      3.60290675	     56.56464042	     46.08276243	      0.00000000	      0.00000000
      7.69500000	     -2.79951498	     -3.38803286	     -3.72220024	      1.05315241	      0.93226384	      0.44855685	     34.37486100	     -4.32994804	     -8.77796915	     36.69772847	     36.69772847	     -0.29450739	     -8.67263717	     -0.28035980	      2.82685751	     -3.22181480	    -11.49704161	     14.18300330	     14.18300330	     15.23072303	     -9.02168555	     -5.00218203	    -12.00951852	      6.05080624	      0.99087090	     -0.86202178	    -11.87737020	    -11.15656171	     34.16479326	     46.81254885	      0.00000000	      0.00000000	     18.02490593	    -16.41378290	      3.13116309	     58.26516646	     46.16499373	      0.00000000	      0.00000000
      7.70650000	     -2.81352423	     -3.35340347	     -3.77309056	      1.05373435	      0.93128327	      0.44887264	     33.91433947	     -4.07149735	     -9.33760359	     32.34259128	     32.34259128	     -0.27809580	     -6.61994949	      0.09081455	      1.68791621	     -3.08231712	    -11.77236736	     13.32339909	     13.32339909	     15.50138805	     -8.40498734	     -5.29361757	    -12.02169739	      6.13339796	      1.20364734	     -2.48968469	    -12.06821655	    -11.48205017	     32.25844174	     46.89079576	      0.00000000	      0.00000000	     19.18819372	    -16.57988334	      2.77552697	     60.07558793	     46.23521671	      0.00000000	      0.00000000
      7.71800000	     -2.77081633	     -3.26186797	     -3.84471968	      1.05446633	      0.93010935	      0.44931151	     33.27437667	     -3.85139755	    -10.01159669	     28.01657888	     28.01657888	     -0.33814565	     -4.38873607	      0.69061163	      0.48336538	     -2.87941048	    -12.09587211	     12.46676011	     12.46676011	     15.79759764	     -7.73158296	     -5.66707367	    -12.06475204	      6.11990840	      1.38979142	     -4.03863765	    -12.17084000	    -11.85758910	     30.27651498	     46.97914716	      0.00000000	      0.00000000	     20.26515444	    -16.80909739	      2.42696632	     62.14934878	     46.30755086	      0.00000000	      0.00000000
      7.72950000	     -2.58827266	     -3.04871765	     -3.86379556	      1.05566420	      0.92873666	      0.44985841	     32.49603432	     -3.80791877	    -10.88334717	     24.13466956	     24.13466956	      0.01393177	     -1.82892184	      1.57437994	     -0.93496829	     -2.54636961	    -12.56158819	     11.53792659	     11.53792659	     16.02897336	     -6.83571016	     -6.28679771	    -12.19022169	      5.86462755	      1.48297443	     -5.12488818	    -12.13308098	    -12.65742337	     27.60025826	     47.13085142	      0.00000000	      0.00000000	     20.98436935	    -17.23336741	      1.98049955	     65.26150413	     46.40956974	      0.00000000	      0.00000000
